<?xml version="1.0" ?><!DOCTYPE svg  PUBLIC '-//W3C//DTD SVG 1.1//EN'  'http://www.w3.org/Graphics/SVG/1.1/DTD/svg11.dtd'><svg enable-background="new 0 0 64 64" height="64px" id="Skype" version="1.1" viewBox="0 0 64 64" width="64px" xml:space="preserve" xmlns="http://www.w3.org/2000/svg" xmlns:xlink="http://www.w3.org/1999/xlink"><linearGradient gradientTransform="matrix(1 0 0 -1 -1918 -2480)" gradientUnits="userSpaceOnUse" id="Circle_Shadow_1_" x1="1982.0313" x2="1950.0313" y1="-2543.999" y2="-2511.999"><stop offset="0.3163" style="stop-color:#FFFFFF;stop-opacity:0"/><stop offset="0.3508" style="stop-color:#E9E9E9;stop-opacity:0.0504"/><stop offset="0.4543" style="stop-color:#ACACAC;stop-opacity:0.2018"/><stop offset="0.5572" style="stop-color:#787878;stop-opacity:0.3523"/><stop offset="0.6569" style="stop-color:#4D4D4D;stop-opacity:0.4981"/><stop offset="0.7528" style="stop-color:#2B2B2B;stop-opacity:0.6385"/><stop offset="0.8441" style="stop-color:#131313;stop-opacity:0.7719"/><stop offset="0.9286" style="stop-color:#050505;stop-opacity:0.8956"/><stop offset="1" style="stop-color:#000000"/></linearGradient><polygon enable-background="new    " fill="url(#Circle_Shadow_1_)" id="Circle_Shadow" opacity="0.2" points="64.029,64   64.029,30.059 49,15.029 15.059,48.971 30.088,64 "/><circle cx="32" cy="32" fill="#282f35" id="Circle" r="24"/><g id="S_Shadow"><g><defs><circle cx="32.029" cy="32" id="SVGID_1_" r="24"/></defs><clipPath id="SVGID_2_"><use overflow="visible" xlink:href="#SVGID_1_"/></clipPath><linearGradient gradientTransform="matrix(1 0 0 -1 -274 -299)" gradientUnits="userSpaceOnUse" id="SVGID_3_" x1="350.5313" x2="293.5107" y1="-375.5137" y2="-318.4931"><stop offset="0.5255" style="stop-color:#000000;stop-opacity:0"/><stop offset="0.5926" style="stop-color:#000000;stop-opacity:0.1413"/><stop offset="1" style="stop-color:#000000"/></linearGradient><path clip-path="url(#SVGID_2_)" d="M78.113,67.497    c-0.088-0.207-0.127-0.396-0.08-0.627c0.339-1.677,0.351-3.354,0.072-5.044c-0.469-2.84-1.781-5.352-3.638-7.32    c-0.034-0.037-0.071-0.068-0.106-0.105c-0.033-0.037-0.072-0.07-0.107-0.107c-0.033-0.036-0.07-0.068-0.104-0.104    c-0.034-0.039-0.073-0.071-0.107-0.108s-0.072-0.069-0.107-0.106c-0.033-0.035-0.069-0.067-0.104-0.104s-0.072-0.069-0.105-0.105    c-0.033-0.037-0.072-0.068-0.105-0.105c-0.035-0.038-0.074-0.072-0.11-0.109c-0.032-0.035-0.069-0.066-0.103-0.103    c-0.036-0.039-0.075-0.074-0.112-0.112c-0.03-0.034-0.065-0.063-0.098-0.097c-0.035-0.039-0.074-0.073-0.11-0.111    c-0.033-0.036-0.07-0.067-0.104-0.104c-0.034-0.037-0.073-0.071-0.109-0.108c-0.033-0.036-0.07-0.067-0.104-0.104    c-0.037-0.037-0.076-0.072-0.112-0.11c-0.032-0.035-0.068-0.065-0.101-0.101c-0.035-0.037-0.074-0.072-0.108-0.108    s-0.071-0.069-0.104-0.104c-0.035-0.037-0.072-0.07-0.107-0.107c-0.033-0.036-0.071-0.068-0.105-0.105    c-0.033-0.037-0.072-0.068-0.105-0.105c-0.034-0.037-0.073-0.07-0.107-0.107s-0.072-0.068-0.105-0.105    c-0.035-0.037-0.073-0.07-0.108-0.107c-0.033-0.036-0.07-0.066-0.104-0.104c-0.033-0.037-0.072-0.069-0.105-0.106    c-0.034-0.037-0.072-0.069-0.105-0.106c-0.035-0.037-0.072-0.068-0.106-0.105s-0.072-0.069-0.106-0.105    c-0.035-0.037-0.072-0.07-0.107-0.107c-0.033-0.036-0.07-0.068-0.104-0.104c-0.034-0.038-0.073-0.071-0.108-0.11    c-0.033-0.034-0.069-0.065-0.104-0.101c-0.034-0.036-0.07-0.069-0.105-0.106c-0.033-0.036-0.071-0.069-0.105-0.105    c-0.035-0.038-0.074-0.072-0.109-0.109c-0.033-0.037-0.072-0.07-0.107-0.107c-0.031-0.034-0.066-0.064-0.1-0.098    c-0.035-0.041-0.076-0.076-0.113-0.115c-0.033-0.036-0.07-0.067-0.104-0.104c-0.034-0.036-0.071-0.067-0.104-0.104    c-0.034-0.037-0.072-0.071-0.107-0.108c-0.033-0.035-0.07-0.068-0.104-0.104c-0.035-0.039-0.075-0.073-0.111-0.112    c-0.032-0.034-0.068-0.065-0.102-0.101c-0.035-0.039-0.074-0.072-0.109-0.11c-0.034-0.035-0.071-0.067-0.104-0.104    c-0.035-0.037-0.072-0.068-0.106-0.105s-0.072-0.069-0.106-0.105c-0.033-0.037-0.072-0.07-0.105-0.106    c-0.034-0.037-0.072-0.069-0.106-0.106s-0.073-0.07-0.108-0.107c-0.033-0.036-0.07-0.068-0.104-0.104    c-0.035-0.038-0.072-0.071-0.107-0.108c-0.033-0.035-0.07-0.067-0.104-0.104c-0.034-0.037-0.071-0.068-0.106-0.105    c-0.033-0.037-0.071-0.069-0.105-0.106s-0.072-0.069-0.105-0.106c-0.033-0.035-0.07-0.067-0.104-0.104    c-0.035-0.039-0.075-0.074-0.111-0.112c-0.032-0.034-0.069-0.065-0.103-0.103c-0.034-0.037-0.072-0.07-0.107-0.106    c-0.033-0.038-0.072-0.071-0.107-0.106c-0.032-0.036-0.068-0.067-0.103-0.104c-0.034-0.037-0.073-0.072-0.11-0.109    c-0.033-0.037-0.069-0.069-0.104-0.105c-0.035-0.038-0.074-0.07-0.109-0.109c-0.033-0.035-0.07-0.065-0.104-0.102    c-0.034-0.038-0.073-0.072-0.107-0.109c-0.033-0.035-0.07-0.066-0.104-0.103c-0.034-0.037-0.072-0.071-0.107-0.108    c-0.034-0.037-0.071-0.068-0.106-0.105c-0.034-0.038-0.073-0.071-0.108-0.109c-0.032-0.035-0.069-0.066-0.104-0.104    c-0.033-0.036-0.071-0.069-0.105-0.105c-0.035-0.038-0.072-0.07-0.107-0.107c-0.033-0.037-0.071-0.068-0.104-0.104    c-0.034-0.037-0.072-0.069-0.106-0.106c-0.033-0.037-0.072-0.068-0.105-0.105c-0.034-0.037-0.072-0.068-0.105-0.105    c-0.035-0.037-0.074-0.07-0.109-0.108c-0.031-0.035-0.067-0.065-0.102-0.101c-0.037-0.041-0.078-0.076-0.115-0.117    c-0.029-0.031-0.063-0.062-0.095-0.094c-0.038-0.041-0.079-0.078-0.118-0.117c-0.031-0.035-0.065-0.064-0.098-0.099    c-0.035-0.038-0.074-0.071-0.109-0.108c-0.035-0.039-0.072-0.071-0.106-0.107c-0.033-0.036-0.07-0.068-0.104-0.104    c-0.035-0.039-0.074-0.074-0.109-0.111c-0.033-0.035-0.069-0.066-0.104-0.102c-0.033-0.037-0.07-0.07-0.104-0.106    c-0.035-0.038-0.074-0.071-0.11-0.109c-0.033-0.036-0.07-0.067-0.104-0.104c-0.035-0.037-0.074-0.071-0.109-0.108    c-0.032-0.035-0.066-0.065-0.1-0.101c-0.037-0.038-0.077-0.074-0.114-0.113c-0.032-0.035-0.068-0.066-0.103-0.102    c-0.035-0.037-0.072-0.071-0.107-0.108c-0.034-0.037-0.072-0.07-0.107-0.106c-0.033-0.035-0.068-0.067-0.104-0.104    c-0.034-0.037-0.072-0.071-0.107-0.107c-0.033-0.037-0.072-0.07-0.105-0.106c-0.034-0.037-0.073-0.07-0.108-0.107    c-0.032-0.036-0.069-0.067-0.104-0.104c-0.035-0.038-0.076-0.073-0.111-0.111c-0.032-0.035-0.068-0.066-0.102-0.102    c-0.035-0.037-0.072-0.069-0.106-0.106s-0.072-0.069-0.106-0.106c-0.033-0.037-0.072-0.068-0.105-0.105    c-0.034-0.037-0.072-0.069-0.106-0.105c-0.034-0.037-0.073-0.07-0.106-0.107c-0.034-0.036-0.072-0.069-0.106-0.106    c-0.034-0.036-0.071-0.069-0.106-0.104c-0.032-0.036-0.069-0.068-0.104-0.104c-0.033-0.036-0.072-0.071-0.107-0.108    c-0.033-0.035-0.07-0.067-0.104-0.104c-0.035-0.038-0.074-0.072-0.11-0.109c-0.031-0.035-0.064-0.063-0.097-0.098    c-0.069-0.074-0.146-0.143-0.218-0.217c-0.035-0.038-0.073-0.07-0.108-0.107c-0.034-0.037-0.071-0.07-0.104-0.105    c-0.034-0.037-0.072-0.071-0.107-0.107c-0.033-0.037-0.072-0.07-0.105-0.105c-0.034-0.037-0.072-0.07-0.107-0.107    c-0.034-0.037-0.072-0.07-0.105-0.105s-0.07-0.067-0.104-0.104c-0.034-0.037-0.071-0.07-0.106-0.107s-0.072-0.069-0.106-0.106    s-0.072-0.069-0.106-0.106c-0.033-0.037-0.072-0.068-0.105-0.105c-0.034-0.037-0.072-0.068-0.106-0.105    c-0.034-0.039-0.073-0.072-0.108-0.108c-0.032-0.036-0.069-0.067-0.104-0.103c-0.035-0.039-0.074-0.074-0.109-0.111    c-0.033-0.035-0.07-0.067-0.104-0.104c-0.034-0.037-0.071-0.068-0.106-0.105c-0.033-0.036-0.07-0.068-0.104-0.104    c-0.034-0.038-0.073-0.071-0.108-0.108c-0.033-0.037-0.072-0.07-0.106-0.107c-0.033-0.035-0.069-0.066-0.103-0.102    c-0.035-0.039-0.076-0.073-0.111-0.111c-0.032-0.036-0.069-0.067-0.104-0.104c-0.033-0.037-0.072-0.07-0.105-0.105    c-0.033-0.036-0.07-0.068-0.104-0.104c-0.036-0.039-0.075-0.074-0.112-0.113c-0.031-0.035-0.068-0.066-0.103-0.103    c-0.033-0.036-0.069-0.067-0.104-0.104c-0.037-0.039-0.076-0.074-0.113-0.113c-0.032-0.035-0.068-0.064-0.102-0.1    c-0.035-0.039-0.074-0.073-0.109-0.111c-0.033-0.035-0.069-0.066-0.104-0.102c-0.033-0.037-0.072-0.07-0.107-0.107    c-0.033-0.037-0.071-0.07-0.105-0.107c-0.035-0.037-0.072-0.07-0.107-0.106c-0.035-0.038-0.073-0.071-0.107-0.108    c-0.033-0.035-0.07-0.066-0.104-0.104c-0.035-0.036-0.072-0.068-0.106-0.105s-0.072-0.068-0.106-0.105    c-0.033-0.037-0.072-0.069-0.105-0.105c-0.035-0.038-0.074-0.072-0.109-0.109c-0.031-0.035-0.068-0.065-0.102-0.102    c-0.034-0.037-0.073-0.07-0.107-0.107c-0.035-0.039-0.074-0.072-0.109-0.109c-0.031-0.034-0.067-0.065-0.102-0.102    c-0.035-0.039-0.074-0.072-0.111-0.111c-0.033-0.036-0.072-0.069-0.105-0.105c-0.033-0.035-0.068-0.066-0.104-0.104    c-0.033-0.036-0.072-0.069-0.106-0.106c-0.035-0.038-0.075-0.071-0.11-0.11c-0.033-0.035-0.068-0.065-0.103-0.102    c-0.034-0.038-0.073-0.07-0.108-0.107c-0.031-0.037-0.068-0.067-0.104-0.104c-0.035-0.039-0.074-0.074-0.11-0.111    c-0.034-0.037-0.071-0.068-0.104-0.104c-0.032-0.035-0.068-0.066-0.103-0.103c-0.036-0.039-0.077-0.074-0.114-0.113    c-0.031-0.034-0.065-0.064-0.099-0.1c-0.036-0.039-0.076-0.074-0.113-0.113c-0.032-0.035-0.069-0.067-0.104-0.104    c-0.033-0.036-0.069-0.068-0.104-0.104c-0.033-0.037-0.072-0.071-0.107-0.108c-0.034-0.038-0.073-0.071-0.108-0.108    c-0.032-0.035-0.069-0.068-0.104-0.104c-0.035-0.038-0.072-0.071-0.108-0.109c-0.033-0.035-0.069-0.066-0.104-0.104    c-0.033-0.037-0.069-0.068-0.104-0.104c-0.035-0.038-0.074-0.071-0.109-0.11c-0.033-0.035-0.07-0.067-0.104-0.104    c-0.034-0.037-0.073-0.07-0.106-0.107c-0.033-0.035-0.07-0.067-0.104-0.104c-0.035-0.038-0.074-0.072-0.109-0.109    c-0.032-0.037-0.071-0.068-0.104-0.104c-0.031-0.035-0.068-0.065-0.102-0.101c-0.037-0.041-0.076-0.076-0.115-0.117    c-0.033-0.035-0.07-0.067-0.104-0.104c-0.031-0.033-0.065-0.064-0.099-0.099c-0.037-0.039-0.078-0.075-0.114-0.114    c-0.033-0.036-0.071-0.068-0.104-0.104c-0.031-0.035-0.068-0.066-0.102-0.103c-0.036-0.039-0.076-0.073-0.113-0.112    c-0.033-0.037-0.07-0.068-0.104-0.104s-0.07-0.067-0.104-0.104s-0.071-0.069-0.104-0.105c-0.035-0.038-0.074-0.072-0.109-0.109    c-0.033-0.035-0.068-0.066-0.104-0.102c-0.035-0.039-0.074-0.074-0.11-0.112c-0.033-0.036-0.071-0.068-0.104-0.104    c-0.033-0.037-0.072-0.07-0.106-0.107c-0.033-0.036-0.07-0.068-0.104-0.104c-0.033-0.038-0.072-0.071-0.107-0.108    c-0.033-0.036-0.069-0.067-0.104-0.103c-0.034-0.038-0.073-0.073-0.11-0.111c-0.032-0.036-0.068-0.067-0.103-0.102    c-0.034-0.037-0.071-0.07-0.106-0.107c-0.035-0.038-0.074-0.072-0.109-0.109c-0.033-0.036-0.07-0.068-0.104-0.104    c-0.033-0.037-0.071-0.069-0.105-0.105c-0.034-0.037-0.072-0.07-0.105-0.106c-0.035-0.037-0.072-0.07-0.106-0.106    c-0.034-0.038-0.072-0.071-0.106-0.107c-0.035-0.037-0.072-0.07-0.107-0.107c-0.032-0.036-0.069-0.067-0.104-0.102    c-0.033-0.038-0.072-0.071-0.107-0.109s-0.074-0.072-0.11-0.11c-0.03-0.035-0.067-0.065-0.101-0.099    c-0.033-0.038-0.072-0.072-0.107-0.109c-0.034-0.038-0.072-0.071-0.107-0.109c-0.033-0.036-0.07-0.068-0.104-0.104    c-0.034-0.038-0.073-0.071-0.108-0.108c-0.033-0.037-0.072-0.069-0.105-0.106s-0.071-0.069-0.104-0.105    c-0.035-0.038-0.074-0.072-0.109-0.109c-0.032-0.035-0.068-0.065-0.102-0.1c-0.035-0.038-0.072-0.072-0.109-0.11    c-0.034-0.038-0.072-0.072-0.108-0.109c-0.033-0.037-0.071-0.069-0.104-0.105c-0.033-0.037-0.071-0.069-0.105-0.105    c-0.033-0.037-0.07-0.07-0.105-0.106c-0.033-0.036-0.07-0.069-0.104-0.104c-0.034-0.038-0.072-0.071-0.106-0.108    c-0.035-0.038-0.074-0.072-0.109-0.109c-0.033-0.035-0.069-0.067-0.104-0.102c-0.033-0.037-0.072-0.07-0.107-0.107    c-0.034-0.038-0.072-0.071-0.107-0.108c-0.033-0.037-0.07-0.068-0.105-0.104c-0.032-0.037-0.07-0.069-0.104-0.105    c-0.034-0.038-0.071-0.071-0.106-0.108c-0.035-0.036-0.071-0.069-0.105-0.105c-0.034-0.038-0.073-0.071-0.107-0.108    c-0.033-0.036-0.07-0.068-0.104-0.104c-0.034-0.037-0.072-0.07-0.106-0.107c-0.033-0.037-0.07-0.069-0.104-0.105    c-0.034-0.037-0.072-0.07-0.106-0.106c-0.035-0.038-0.074-0.072-0.109-0.109c-0.032-0.036-0.068-0.067-0.103-0.102    c-0.034-0.038-0.073-0.072-0.108-0.109c-0.033-0.036-0.07-0.068-0.104-0.104c-0.034-0.037-0.071-0.07-0.106-0.106    c-0.033-0.038-0.072-0.071-0.107-0.109c-0.034-0.037-0.072-0.069-0.105-0.105c-0.033-0.036-0.07-0.068-0.104-0.104    c-0.034-0.037-0.072-0.07-0.106-0.106c-0.033-0.037-0.072-0.07-0.105-0.107c-0.035-0.037-0.073-0.071-0.108-0.107    c-0.032-0.037-0.071-0.069-0.104-0.105c-0.034-0.037-0.072-0.07-0.106-0.107s-0.071-0.069-0.104-0.105    c-0.034-0.037-0.072-0.07-0.106-0.106c-0.034-0.037-0.073-0.07-0.106-0.107c-0.034-0.037-0.071-0.069-0.105-0.105    c-0.034-0.037-0.072-0.07-0.105-0.107c-0.035-0.037-0.072-0.07-0.106-0.106c-0.035-0.038-0.074-0.072-0.108-0.109    c-0.033-0.036-0.07-0.067-0.104-0.103c-0.034-0.037-0.073-0.07-0.107-0.107c-0.035-0.038-0.072-0.071-0.107-0.109    c-0.033-0.036-0.07-0.067-0.104-0.102c-0.034-0.038-0.073-0.072-0.108-0.11c-0.033-0.036-0.071-0.068-0.105-0.104    c-0.033-0.037-0.07-0.069-0.104-0.104c-0.034-0.038-0.073-0.072-0.108-0.109c-0.033-0.037-0.071-0.069-0.104-0.105    c-0.033-0.037-0.071-0.069-0.105-0.105c-0.034-0.037-0.072-0.07-0.105-0.107c-0.035-0.037-0.072-0.07-0.107-0.107    c-0.033-0.037-0.071-0.069-0.104-0.105c-0.035-0.037-0.074-0.07-0.107-0.107c-0.035-0.038-0.074-0.072-0.109-0.109    c-0.033-0.036-0.07-0.067-0.104-0.103c-0.034-0.037-0.072-0.07-0.106-0.106c-0.034-0.038-0.071-0.071-0.106-0.107    c-0.035-0.038-0.072-0.071-0.107-0.108c-0.034-0.036-0.07-0.069-0.105-0.105c-0.033-0.037-0.07-0.069-0.104-0.105    c-0.034-0.037-0.071-0.069-0.104-0.105c-0.035-0.038-0.074-0.071-0.108-0.108c-3.009-3.261-7.496-5.066-12.157-4.436    c-0.438,0.059-0.799-0.01-1.189-0.219c-3.149-1.682-7-1.104-9.561,1.41c-2.521,2.477-3.156,6.347-1.541,9.499    c0.17,0.332,0.223,0.631,0.146,1c-0.155,0.756-0.17,1.529-0.205,2.335c0.027,0.45,0.035,0.937,0.086,1.419    c0.37,3.537,1.999,6.61,4.39,8.842c0.037,0.034,0.07,0.071,0.106,0.105c0.037,0.035,0.07,0.072,0.106,0.105    c0.037,0.035,0.07,0.072,0.106,0.106c0.037,0.036,0.072,0.073,0.109,0.108c0.036,0.035,0.069,0.072,0.105,0.104    c0.036,0.034,0.068,0.071,0.104,0.104c0.036,0.033,0.068,0.07,0.104,0.104c0.037,0.035,0.071,0.073,0.108,0.107    c0.037,0.035,0.07,0.074,0.107,0.107c0.036,0.034,0.07,0.072,0.106,0.106s0.07,0.071,0.106,0.106    c0.037,0.034,0.071,0.072,0.108,0.106c0.036,0.034,0.068,0.069,0.104,0.104c0.036,0.033,0.069,0.07,0.105,0.104    c0.036,0.032,0.068,0.069,0.104,0.104c0.038,0.035,0.073,0.074,0.111,0.109c0.036,0.034,0.068,0.07,0.104,0.104    c0.038,0.037,0.072,0.074,0.11,0.11c0.035,0.033,0.067,0.069,0.103,0.103c0.037,0.037,0.072,0.074,0.109,0.109    c0.036,0.033,0.068,0.07,0.104,0.104c0.037,0.034,0.07,0.073,0.107,0.106c0.036,0.035,0.07,0.072,0.106,0.106    c0.036,0.034,0.069,0.071,0.105,0.104c0.036,0.034,0.069,0.071,0.106,0.105c0.036,0.035,0.069,0.072,0.106,0.105    c0.037,0.035,0.071,0.073,0.109,0.108c0.036,0.034,0.068,0.071,0.104,0.104c0.037,0.035,0.07,0.071,0.107,0.106    c0.037,0.034,0.07,0.072,0.107,0.106c0.037,0.035,0.071,0.072,0.108,0.107c0.034,0.032,0.065,0.067,0.1,0.1    c0.038,0.037,0.074,0.076,0.112,0.113c0.036,0.033,0.069,0.07,0.106,0.104c0.035,0.032,0.066,0.069,0.102,0.103    c0.039,0.036,0.074,0.076,0.113,0.112c0.035,0.033,0.067,0.069,0.103,0.103c0.036,0.035,0.07,0.072,0.106,0.106    c0.037,0.035,0.07,0.072,0.107,0.106c0.036,0.035,0.069,0.072,0.106,0.105c0.036,0.034,0.069,0.072,0.106,0.105    c0.037,0.035,0.071,0.074,0.109,0.108c0.035,0.034,0.067,0.07,0.103,0.104c0.038,0.035,0.073,0.074,0.111,0.109    c0.035,0.033,0.067,0.069,0.103,0.103c0.036,0.034,0.07,0.073,0.107,0.106c0.036,0.035,0.069,0.072,0.106,0.106    c0.037,0.035,0.072,0.073,0.109,0.108c0.035,0.033,0.066,0.068,0.101,0.102c0.039,0.037,0.075,0.077,0.114,0.113    c0.033,0.031,0.063,0.065,0.097,0.098c0.039,0.037,0.076,0.078,0.115,0.115c0.035,0.033,0.067,0.068,0.102,0.102    c0.036,0.034,0.069,0.072,0.105,0.105c0.038,0.035,0.074,0.074,0.112,0.111c0.035,0.032,0.067,0.067,0.102,0.102    c0.037,0.035,0.071,0.072,0.109,0.107c0.036,0.035,0.069,0.071,0.104,0.104c0.036,0.034,0.069,0.071,0.105,0.104    c0.037,0.035,0.07,0.072,0.107,0.107s0.07,0.072,0.107,0.107c0.036,0.033,0.069,0.07,0.105,0.104    c0.038,0.036,0.072,0.075,0.11,0.11c0.035,0.032,0.066,0.069,0.102,0.102c0.037,0.035,0.071,0.074,0.109,0.108    c0.036,0.033,0.069,0.07,0.105,0.105c0.037,0.033,0.07,0.071,0.106,0.105c0.036,0.033,0.069,0.07,0.105,0.105    c0.037,0.034,0.071,0.072,0.108,0.107c0.037,0.034,0.07,0.072,0.107,0.105c0.037,0.035,0.071,0.074,0.108,0.108    c0.036,0.033,0.069,0.07,0.104,0.104c0.036,0.033,0.069,0.07,0.105,0.104c0.036,0.035,0.069,0.072,0.105,0.105    c0.038,0.037,0.072,0.074,0.11,0.109c0.035,0.033,0.067,0.07,0.103,0.104c0.037,0.034,0.072,0.073,0.109,0.108    c0.036,0.033,0.068,0.07,0.104,0.104s0.069,0.071,0.105,0.106c0.038,0.035,0.073,0.073,0.111,0.109    c0.035,0.034,0.068,0.07,0.104,0.104c0.036,0.035,0.069,0.071,0.105,0.105c0.037,0.035,0.07,0.072,0.106,0.105    c0.037,0.035,0.07,0.072,0.106,0.106c0.038,0.035,0.072,0.073,0.109,0.108c0.035,0.033,0.068,0.07,0.104,0.104    c0.037,0.035,0.071,0.073,0.107,0.107c0.036,0.033,0.069,0.07,0.105,0.105c0.036,0.033,0.069,0.07,0.105,0.104    c0.037,0.036,0.072,0.073,0.11,0.108c0.036,0.035,0.069,0.071,0.105,0.105c0.036,0.034,0.069,0.07,0.106,0.105    c0.036,0.033,0.069,0.071,0.105,0.104c0.037,0.035,0.07,0.072,0.107,0.106c0.036,0.035,0.071,0.074,0.108,0.107    c0.035,0.034,0.068,0.071,0.104,0.105c0.036,0.033,0.069,0.07,0.104,0.104c0.037,0.034,0.069,0.072,0.105,0.104    c0.037,0.037,0.07,0.074,0.107,0.109c0.035,0.033,0.067,0.069,0.104,0.104c0.038,0.035,0.073,0.074,0.11,0.111    c0.035,0.032,0.068,0.068,0.104,0.102c0.036,0.035,0.069,0.072,0.105,0.107c0.037,0.035,0.072,0.073,0.111,0.109    c0.034,0.033,0.066,0.069,0.103,0.104c0.036,0.033,0.069,0.072,0.106,0.105c0.037,0.035,0.07,0.073,0.107,0.107    c0.036,0.035,0.068,0.07,0.105,0.104c0.035,0.035,0.069,0.072,0.106,0.107c0.036,0.034,0.069,0.071,0.104,0.104    s0.068,0.07,0.104,0.104c0.038,0.036,0.073,0.075,0.11,0.11c0.035,0.033,0.068,0.069,0.104,0.104    c0.038,0.036,0.072,0.074,0.11,0.109c0.036,0.033,0.067,0.07,0.104,0.104c0.034,0.034,0.067,0.071,0.104,0.104    c0.038,0.035,0.072,0.074,0.111,0.11c0.035,0.034,0.068,0.071,0.105,0.104c0.036,0.035,0.068,0.072,0.105,0.105    c0.035,0.033,0.066,0.069,0.104,0.104c0.037,0.034,0.068,0.071,0.105,0.104c0.037,0.036,0.072,0.075,0.11,0.111    c0.036,0.033,0.068,0.07,0.104,0.104c0.037,0.035,0.07,0.073,0.107,0.108c0.034,0.033,0.066,0.069,0.103,0.103    c0.036,0.035,0.071,0.072,0.106,0.107c0.037,0.035,0.071,0.073,0.109,0.107c0.035,0.033,0.066,0.07,0.104,0.104    c0.037,0.036,0.072,0.074,0.11,0.11c0.034,0.031,0.065,0.068,0.101,0.101c0.039,0.036,0.074,0.075,0.111,0.111    c0.036,0.034,0.07,0.071,0.106,0.106c0.034,0.032,0.067,0.068,0.103,0.103c0.037,0.035,0.071,0.073,0.109,0.108    c0.035,0.035,0.068,0.071,0.105,0.105c0.035,0.034,0.068,0.071,0.104,0.104c0.037,0.037,0.071,0.074,0.11,0.11    c0.033,0.033,0.065,0.069,0.102,0.103c0.036,0.035,0.07,0.072,0.105,0.105c0.039,0.037,0.074,0.076,0.113,0.113    c0.033,0.031,0.063,0.064,0.098,0.098c0.039,0.036,0.074,0.076,0.112,0.112c0.036,0.034,0.068,0.069,0.105,0.104    c0.034,0.033,0.067,0.069,0.104,0.104c0.037,0.036,0.073,0.076,0.112,0.111c0.033,0.031,0.063,0.066,0.097,0.099    c0.039,0.037,0.075,0.077,0.114,0.112c0.035,0.033,0.065,0.068,0.101,0.102c0.037,0.035,0.07,0.073,0.107,0.107    c0.037,0.035,0.072,0.074,0.109,0.109c0.035,0.033,0.066,0.069,0.103,0.104c0.038,0.035,0.072,0.072,0.109,0.107    c0.036,0.034,0.069,0.072,0.104,0.105c0.037,0.036,0.072,0.074,0.109,0.107c0.035,0.035,0.068,0.071,0.104,0.104    c0.035,0.034,0.068,0.071,0.104,0.104c0.036,0.035,0.069,0.072,0.106,0.106c0.037,0.035,0.069,0.072,0.106,0.106    c0.036,0.035,0.069,0.072,0.106,0.105c0.035,0.035,0.069,0.072,0.105,0.107c0.037,0.033,0.07,0.072,0.107,0.105    c0.035,0.034,0.068,0.072,0.105,0.106c0.036,0.034,0.07,0.071,0.107,0.106c0.035,0.033,0.068,0.07,0.104,0.104    c0.037,0.034,0.07,0.071,0.107,0.106c0.035,0.034,0.068,0.071,0.105,0.105c0.036,0.035,0.069,0.072,0.106,0.105    c0.037,0.037,0.071,0.074,0.11,0.11c0.033,0.032,0.064,0.068,0.101,0.101c0.037,0.035,0.069,0.074,0.108,0.108    c0.035,0.034,0.067,0.071,0.104,0.104c0.037,0.035,0.072,0.074,0.109,0.109c0.037,0.034,0.07,0.071,0.105,0.105    c0.035,0.031,0.066,0.068,0.102,0.102c0.039,0.037,0.076,0.077,0.115,0.114c0.033,0.03,0.063,0.065,0.098,0.099    c0.039,0.036,0.074,0.076,0.113,0.113c0.035,0.033,0.067,0.068,0.104,0.102c0.037,0.035,0.07,0.074,0.107,0.107    c0.035,0.034,0.067,0.071,0.104,0.104c0.036,0.035,0.068,0.072,0.105,0.106c0.039,0.036,0.074,0.076,0.112,0.112    c0.033,0.031,0.064,0.066,0.099,0.098c0.037,0.036,0.072,0.075,0.111,0.111c0.036,0.035,0.069,0.072,0.105,0.105    c0.035,0.034,0.068,0.07,0.104,0.104c0.037,0.034,0.071,0.071,0.107,0.106c0.035,0.034,0.068,0.071,0.105,0.105    c0.037,0.035,0.069,0.072,0.106,0.105c0.036,0.035,0.069,0.072,0.104,0.106c0.039,0.036,0.073,0.075,0.111,0.11    c0.034,0.031,0.066,0.068,0.102,0.101c0.037,0.036,0.072,0.074,0.109,0.11c0.035,0.033,0.068,0.07,0.104,0.104    c0.037,0.035,0.07,0.072,0.106,0.106s0.069,0.071,0.106,0.106c0.035,0.033,0.068,0.071,0.105,0.104    c0.035,0.034,0.069,0.073,0.106,0.108c0.034,0.032,0.067,0.068,0.103,0.103c0.039,0.037,0.075,0.077,0.114,0.114    c0.035,0.033,0.067,0.068,0.103,0.102c0.037,0.035,0.07,0.073,0.107,0.107c0.036,0.033,0.068,0.07,0.104,0.104    c0.037,0.035,0.072,0.073,0.108,0.108c0.036,0.034,0.069,0.071,0.106,0.104c0.033,0.033,0.066,0.069,0.101,0.104    c0.04,0.037,0.076,0.078,0.116,0.115c0.034,0.031,0.066,0.067,0.102,0.101c0.037,0.035,0.07,0.073,0.107,0.106    c0.037,0.035,0.07,0.073,0.107,0.107c0.035,0.033,0.065,0.068,0.102,0.102c0.037,0.035,0.07,0.074,0.107,0.109    s0.07,0.072,0.107,0.107s0.072,0.072,0.109,0.107c0.035,0.033,0.068,0.07,0.104,0.104c0.036,0.034,0.07,0.071,0.106,0.106    c0.036,0.033,0.069,0.07,0.106,0.104c0.035,0.034,0.068,0.071,0.105,0.106c0.036,0.034,0.068,0.071,0.105,0.105    c0.037,0.035,0.069,0.072,0.106,0.105c0.036,0.035,0.069,0.073,0.106,0.108c0.037,0.034,0.069,0.071,0.106,0.104    c0.036,0.035,0.07,0.072,0.106,0.106c0.035,0.034,0.068,0.071,0.105,0.104c0.036,0.035,0.068,0.072,0.105,0.105    c0.035,0.034,0.068,0.071,0.104,0.105c0.037,0.035,0.07,0.072,0.107,0.107s0.072,0.074,0.111,0.109    c0.035,0.033,0.065,0.068,0.102,0.102c0.037,0.035,0.07,0.074,0.109,0.109c0.035,0.033,0.066,0.068,0.104,0.104    c0.035,0.033,0.066,0.07,0.104,0.104c0.037,0.035,0.071,0.074,0.108,0.109s0.071,0.072,0.108,0.106    c0.035,0.035,0.068,0.072,0.105,0.106c0.035,0.033,0.068,0.07,0.105,0.104c0.037,0.036,0.072,0.075,0.111,0.11    c0.032,0.031,0.063,0.066,0.099,0.099c0.038,0.036,0.071,0.076,0.11,0.111c0.035,0.034,0.068,0.071,0.104,0.104    c0.036,0.034,0.069,0.071,0.106,0.105c0.037,0.036,0.071,0.074,0.108,0.109c0.034,0.031,0.065,0.066,0.101,0.1    c0.037,0.037,0.074,0.076,0.112,0.113c0.035,0.033,0.067,0.068,0.103,0.103c0.037,0.036,0.072,0.074,0.109,0.109    c0.036,0.032,0.068,0.069,0.104,0.104c0.036,0.035,0.069,0.072,0.106,0.106c0.035,0.035,0.068,0.072,0.105,0.105    c0.035,0.035,0.07,0.072,0.105,0.107c0.037,0.035,0.071,0.072,0.108,0.107c0.035,0.033,0.067,0.068,0.103,0.103    c0.039,0.037,0.073,0.076,0.112,0.11c0.034,0.033,0.067,0.07,0.103,0.104c0.035,0.034,0.068,0.071,0.104,0.105    c0.036,0.033,0.07,0.072,0.106,0.106c0.037,0.034,0.07,0.072,0.107,0.107c0.036,0.032,0.068,0.069,0.104,0.104    c0.036,0.035,0.069,0.073,0.106,0.107c0.038,0.036,0.074,0.075,0.112,0.11c0.034,0.032,0.063,0.067,0.099,0.1    c0.037,0.035,0.072,0.074,0.109,0.109c0.036,0.033,0.068,0.07,0.105,0.104c0.035,0.035,0.069,0.071,0.105,0.106    s0.07,0.071,0.105,0.105s0.068,0.07,0.104,0.104c0.039,0.037,0.075,0.078,0.114,0.115c0.033,0.031,0.066,0.067,0.102,0.101    c0.036,0.034,0.069,0.071,0.106,0.106c0.036,0.034,0.069,0.071,0.106,0.105c0.035,0.035,0.068,0.072,0.105,0.105    c0.036,0.035,0.068,0.072,0.105,0.106c0.037,0.035,0.07,0.071,0.106,0.106c0.037,0.035,0.072,0.073,0.108,0.108    c0.035,0.033,0.067,0.069,0.103,0.103c0.038,0.035,0.072,0.074,0.11,0.109c0.035,0.033,0.068,0.07,0.104,0.104    c0.036,0.035,0.069,0.072,0.106,0.106c0.036,0.035,0.069,0.072,0.106,0.106c0.035,0.035,0.068,0.072,0.105,0.105    c0.037,0.035,0.07,0.073,0.107,0.108c0.037,0.034,0.069,0.071,0.105,0.104c0.036,0.034,0.068,0.071,0.105,0.105    c0.035,0.033,0.066,0.068,0.103,0.104c0.036,0.034,0.069,0.072,0.108,0.107c0.037,0.035,0.07,0.074,0.107,0.109    s0.071,0.072,0.107,0.106c0.037,0.035,0.072,0.072,0.107,0.106c0.034,0.033,0.066,0.068,0.102,0.101    c0.037,0.036,0.072,0.075,0.109,0.11c0.035,0.033,0.066,0.068,0.103,0.104c0.036,0.034,0.071,0.072,0.108,0.107    s0.069,0.072,0.106,0.105c0.036,0.035,0.069,0.072,0.106,0.106c0.035,0.035,0.069,0.073,0.106,0.108    c0.037,0.033,0.07,0.072,0.106,0.105c0.037,0.034,0.068,0.07,0.104,0.104c0.036,0.035,0.07,0.072,0.106,0.106    c0.035,0.034,0.068,0.071,0.105,0.104c0.036,0.035,0.069,0.072,0.106,0.106c3.065,2.923,7.42,4.444,11.989,3.729    c0.246-0.038,0.453,0.003,0.672,0.113c1.521,0.767,3.152,0.953,4.798,0.688C77.275,78.032,80.271,72.505,78.113,67.497z" enable-background="new    " fill="url(#SVGID_3_)" opacity="0.4"/></g></g><path d="M46.085,35.496c-0.089-0.207-0.128-0.396-0.081-0.627c0.339-1.676,0.352-3.355,0.072-5.044  c-1.227-7.441-8.236-12.658-15.688-11.65c-0.438,0.059-0.799-0.01-1.189-0.219c-3.149-1.682-7-1.104-9.561,1.41  c-2.521,2.477-3.156,6.347-1.541,9.499c0.17,0.332,0.223,0.631,0.146,1c-0.155,0.755-0.17,1.528-0.205,2.335  c0.027,0.448,0.035,0.936,0.086,1.419c0.843,8.063,8.229,13.722,16.272,12.464c0.246-0.038,0.453,0.003,0.672,0.112  c1.521,0.768,3.152,0.953,4.799,0.689C45.246,46.031,48.242,40.504,46.085,35.496z M39.074,39.255  c-0.902,1.028-2.04,1.687-3.331,2.058c-2.425,0.697-4.872,0.723-7.284-0.004c-2.195-0.662-3.814-2.021-4.459-4.302  c-0.457-1.616,0.586-2.825,2.197-2.636c0.695,0.082,1.153,0.503,1.479,1.083c0.204,0.362,0.376,0.747,0.559,1.123  c0.599,1.228,1.562,1.92,2.931,2.069c1.121,0.123,2.205,0.043,3.242-0.426c0.4-0.184,0.756-0.434,1.046-0.769  c0.774-0.896,0.636-2.163-0.315-2.868c-0.921-0.682-2.022-0.861-3.1-1.104c-1.536-0.344-3.078-0.668-4.523-1.313  c-1.494-0.666-2.707-1.633-3.098-3.321c-0.455-1.958,0.091-3.616,1.659-4.887c1.384-1.121,3.05-1.483,4.773-1.634  c0.399-0.035,0.803-0.005,1.204-0.005c1.592-0.043,3.144,0.167,4.581,0.9c1.102,0.562,2.012,1.327,2.541,2.476  c0.26,0.563,0.385,1.163,0.217,1.762c-0.201,0.728-0.697,1.234-1.449,1.387c-0.781,0.159-1.51,0.035-2.002-0.692  c-0.235-0.346-0.461-0.698-0.674-1.059c-0.672-1.145-1.631-1.782-2.993-1.778c-0.621,0.003-1.24-0.018-1.848,0.13  c-0.547,0.132-1.047,0.359-1.462,0.744c-0.739,0.687-0.711,1.629,0.078,2.257c0.52,0.413,1.134,0.644,1.771,0.805  c1.49,0.381,2.989,0.733,4.478,1.123c0.812,0.212,1.585,0.53,2.336,0.907C41.118,33.033,40.869,37.212,39.074,39.255z" fill="#FFFFFF" id="S_2_"/></svg>