<?xml version="1.0" ?><!DOCTYPE svg  PUBLIC '-//W3C//DTD SVG 1.1//EN'  'http://www.w3.org/Graphics/SVG/1.1/DTD/svg11.dtd'><svg enable-background="new 0 0 512 512" height="512px" id="Layer_1" version="1.1" viewBox="0 0 512 512" width="512px" xml:space="preserve" xmlns="http://www.w3.org/2000/svg" xmlns:xlink="http://www.w3.org/1999/xlink"><g><polyline fill="#044E6A" points="0,512 512,512 512,0 0,0 0,512  "/><polyline fill="#010101" opacity="0.191" points="450,244.999 79,243.001 64,270 296.999,512 512,512 512,327.001 450,244.999  "/><polyline fill="#FFFFFF" points="64.551,224.201 100.301,224.201 100.301,235.251 78.851,235.251 78.851,243.051 97.051,243.051    97.051,252.149 78.851,252.149 78.851,271.001 64.551,271.001 64.551,224.201  "/><path d="M117.525,254.081c0,3.106,0.586,5.403,1.763,6.89c1.173,1.486,2.652,2.229,4.432,2.229   c1.794,0,3.269-0.735,4.424-2.198c1.153-1.467,1.731-3.817,1.731-7.054c0-3.014-0.582-5.259-1.748-6.732   c-1.165-1.477-2.603-2.217-4.316-2.217c-1.821,0-3.325,0.749-4.509,2.246C118.117,248.742,117.525,251.018,117.525,254.081    M104.525,254.192c0-5.119,1.717-9.339,5.154-12.662c3.437-3.319,8.08-4.979,13.93-4.979c6.682,0,11.733,1.948,15.154,5.849   c2.741,3.142,4.112,7.011,4.112,11.607c0,5.161-1.704,9.39-5.108,12.69c-3.406,3.302-8.115,4.95-14.129,4.95   c-5.369,0-9.708-1.37-13.02-4.111C106.556,264.143,104.525,259.695,104.525,254.192z" fill="#FFFFFF"/><path d="M185.125,271.001h-12.137v-5.71c-1.8,2.298-3.616,3.931-5.448,4.901c-1.832,0.972-4.084,1.456-6.759,1.456   c-3.555,0-6.345-1.062-8.369-3.188c-2.024-2.126-3.038-5.399-3.038-9.82V237.2h13v18.292c0,2.086,0.393,3.565,1.173,4.442   c0.783,0.878,1.884,1.316,3.306,1.316c1.544,0,2.809-0.585,3.794-1.752c0.985-1.169,1.476-3.266,1.476-6.293V237.2h13V271.001" fill="#FFFFFF"/><path d="M192.925,237.2h12.105v5.716c1.802-2.28,3.623-3.911,5.466-4.893c1.841-0.981,4.089-1.472,6.742-1.472   c3.577,0,6.375,1.061,8.4,3.188c2.024,2.126,3.036,5.409,3.036,9.852v21.41h-13v-18.313c0-2.092-0.391-3.571-1.173-4.438   c-0.781-0.866-1.883-1.301-3.305-1.301c-1.564,0-2.834,0.588-3.808,1.758c-0.975,1.172-1.463,3.27-1.463,6.298v15.996h-13V237.2" fill="#FFFFFF"/><path d="M259.317,253.887c0-2.985-0.556-5.214-1.666-6.684c-1.11-1.469-2.516-2.204-4.215-2.204   c-1.496,0-2.746,0.704-3.754,2.113c-1.004,1.409-1.508,3.774-1.508,7.1c0,3.101,0.521,5.374,1.56,6.819s2.324,2.169,3.854,2.169   c1.638,0,3.004-0.729,4.093-2.185C258.772,259.562,259.317,257.185,259.317,253.887 M272.225,224.201v46.8h-12.056v-4.47   c-1.692,1.884-3.235,3.156-4.629,3.82c-1.864,0.866-3.935,1.297-6.217,1.297c-4.591,0-8.096-1.736-10.518-5.214   c-2.419-3.478-3.63-7.704-3.63-12.68c0-5.564,1.336-9.824,4.011-12.775c2.676-2.953,6.079-4.428,10.207-4.428   c2.006,0,3.829,0.294,5.469,0.888c1.643,0.592,3.096,1.479,4.364,2.666v-15.904H272.225z" fill="#FFFFFF"/><path d="M302.776,255.4c-1.692,0.602-3.453,1.134-5.282,1.594c-2.499,0.664-4.079,1.318-4.744,1.961   c-0.682,0.664-1.024,1.417-1.024,2.266c0,0.96,0.336,1.748,1.011,2.36c0.673,0.611,1.664,0.919,2.971,0.919   c1.373,0,2.649-0.332,3.823-0.995c1.177-0.663,2.01-1.474,2.504-2.428c0.495-0.955,0.742-2.192,0.742-3.718V255.4 M293.027,248.9   l-13.001-1.301c0.459-2.295,1.123-4.102,1.989-5.423c0.867-1.32,2.117-2.465,3.748-3.432c1.171-0.698,2.781-1.239,4.83-1.621   c2.047-0.382,4.263-0.572,6.646-0.572c3.826,0,6.901,0.216,9.223,0.648s4.256,1.336,5.8,2.712c1.09,0.955,1.948,2.304,2.574,4.045   c0.627,1.746,0.94,3.41,0.94,4.993v14.88c0,1.585,0.098,2.826,0.298,3.728c0.2,0.899,0.64,2.048,1.316,3.443h-12.433   c-0.5-0.882-0.828-1.553-0.979-2.011c-0.152-0.461-0.302-1.185-0.452-2.175c-1.659,1.611-3.306,2.763-4.945,3.454   c-2.24,0.922-4.845,1.379-7.811,1.379c-3.94,0-6.934-0.909-8.979-2.732c-2.043-1.819-3.066-4.064-3.066-6.73   c0-2.507,0.735-4.564,2.206-6.177c1.468-1.618,4.183-2.817,8.144-3.605c4.74-0.947,7.813-1.612,9.222-1.994   c1.41-0.383,2.902-0.886,4.48-1.509c0-1.443-0.287-2.453-0.859-3.033c-0.572-0.578-1.575-0.868-3.013-0.868   c-1.84,0-3.223,0.334-4.142,0.996C294.045,246.509,293.466,247.479,293.027,248.9z" fill="#FFFFFF"/><path d="M337.551,224.201V237.2h7.149v9.749h-7.149v12.229c0,1.47,0.142,2.44,0.426,2.916   c0.435,0.735,1.195,1.105,2.285,1.105c0.983,0,2.353-0.28,4.113-0.844l0.976,8.329c-3.237,0.643-6.26,0.963-9.069,0.963   c-3.259,0-5.657-0.403-7.201-1.218c-1.543-0.812-2.686-2.05-3.423-3.712c-0.738-1.661-1.105-4.349-1.105-8.059v-11.711H320V237.2   h4.552v-6.275L337.551,224.201" fill="#FFFFFF"/><path d="M351.2,237.2h13.001v33.801H351.2V237.2 M351.2,224.201h13.001v9.099H351.2V224.201z" fill="#FFFFFF"/><path d="M383.701,254.081c0,3.106,0.587,5.403,1.762,6.89c1.176,1.486,2.651,2.229,4.433,2.229   c1.794,0,3.269-0.735,4.424-2.198c1.155-1.467,1.731-3.817,1.731-7.054c0-3.014-0.582-5.259-1.746-6.732   c-1.166-1.477-2.604-2.217-4.318-2.217c-1.821,0-3.323,0.749-4.51,2.246C384.292,248.742,383.701,251.018,383.701,254.081    M370.7,254.192c0-5.119,1.719-9.339,5.154-12.662c3.436-3.319,8.079-4.979,13.93-4.979c6.681,0,11.732,1.948,15.153,5.849   c2.742,3.142,4.113,7.011,4.113,11.607c0,5.161-1.705,9.39-5.109,12.69c-3.405,3.302-8.115,4.95-14.127,4.95   c-5.368,0-9.709-1.37-13.021-4.111C372.731,264.143,370.7,259.695,370.7,254.192z" fill="#FFFFFF"/><path d="M415.551,237.2h12.105v5.716c1.801-2.28,3.622-3.911,5.464-4.893s4.089-1.472,6.745-1.472   c3.574,0,6.373,1.061,8.398,3.188c2.024,2.126,3.036,5.409,3.036,9.852v21.41h-13.001v-18.313c0-2.092-0.39-3.571-1.173-4.438   c-0.781-0.866-1.884-1.301-3.305-1.301c-1.563,0-2.834,0.588-3.808,1.758c-0.976,1.172-1.462,3.27-1.462,6.298v15.996h-13.001   V237.2" fill="#FFFFFF"/></g></svg>