<?xml version="1.0" ?><!DOCTYPE svg  PUBLIC '-//W3C//DTD SVG 1.1//EN'  'http://www.w3.org/Graphics/SVG/1.1/DTD/svg11.dtd'><svg enable-background="new 0 0 300 300" height="300px" id="Layer_1" version="1.1" viewBox="0 0 300 300" width="300px" xml:space="preserve" xmlns="http://www.w3.org/2000/svg" xmlns:xlink="http://www.w3.org/1999/xlink"><path d="M150.145,37.976c-77.567,0-140.447,65.944-140.447,147.29c0,6.181,0.368,12.27,1.073,18.249h11.175  c-0.765-5.97-1.168-12.06-1.168-18.249c0-74.929,57.92-135.671,129.368-135.671c71.449,0,129.369,60.742,129.369,135.671  c0,6.189-0.404,12.279-1.168,18.249h11.173c0.705-5.979,1.074-12.068,1.074-18.249C290.593,103.919,227.711,37.976,150.145,37.976z" fill="#BFBFBF"/><g><path d="M23.997,178.481c0,0-12.104-6.227-18.33,1.556c0,0,0,52.532,15.565,68.487c0,0,9.924,0.249,11.285-5.057   l-8.52-58.372V178.481z" fill="#3E444E"/><path d="M72.613,162.997c-0.772-4.913-6.113-8.154-11.928-7.24s-9.902,5.639-9.129,10.551l15.231,96.851   c0.772,4.912,6.113,8.153,11.927,7.239c5.815-0.914,9.902-5.639,9.13-10.551L72.613,162.997z" fill="#3E444E"/><path d="M275.579,178.481v6.614l-8.521,58.372c1.362,5.306,11.287,5.057,11.287,5.057   c15.564-15.955,15.563-68.487,15.563-68.487C287.684,172.255,275.579,178.481,275.579,178.481z" fill="#3E444E"/><path d="M238.891,155.757c-5.814-0.914-11.154,2.327-11.927,7.24l-15.231,96.85   c-0.772,4.912,3.315,9.637,9.13,10.551c5.813,0.914,11.154-2.327,11.927-7.239l15.231-96.851   C248.793,161.396,244.705,156.671,238.891,155.757z" fill="#3E444E"/></g><g><path d="M14.982,222.38c4.021,25.571,26.736,43.559,52.033,42.231l-15.475-98.396   C27.058,172.716,10.96,196.808,14.982,222.38z" fill="#D0D1D1"/><path d="M248.036,166.215l-15.475,98.396c25.296,1.327,48.012-16.66,52.032-42.231   C288.616,196.808,272.519,172.716,248.036,166.215z" fill="#D0D1D1"/></g><path d="M150.053,34.07c-46.508,0-87.966,21.589-114.922,55.285l18.098,15.681  c22.553-28.642,57.541-47.034,96.825-47.034c38.844,0,73.481,17.986,96.056,46.079l17.945-15.872  C237.08,55.169,196.033,34.07,150.053,34.07z" fill="#6bd7ca"/></svg>